<svg
  xmlns="http://www.w3.org/2000/svg"
  width="64"
  height="64"
  viewBox="0 0 24 24"
  fill="none"
  stroke="#21D4D4"
  stroke-width="1.8"
  stroke-linecap="round"
  stroke-linejoin="round"
>
  <rect width="24" height="24" rx="6" fill="#0B1220" />
  <g transform="translate(0 0)">
    <path d="M6 9H4.5a2.5 2.5 0 0 1 0-5H6" />
    <path d="M18 9h1.5a2.5 2.5 0 0 0 0-5H18" />
    <path d="M4 22h16" />
    <path d="M10 14.66V17c0 .55-.47.98-.97 1.21C7.85 18.75 7 19.24 7 20.5V22" />
    <path d="M14 14.66V17c0 .55.47.98.97 1.21.18.08 1.03.57 1.03 1.79V22" />
    <path d="M18 2H6v7a6 6 0 0 0 12 0V2Z" />
  </g>
</svg>
